<?xml version="1.0" encoding="UTF-8"?>
<svg version="1.1" xmlns="http://www.w3.org/2000/svg" width="500" height="500">
<path d="M0 0 C165 0 330 0 500 0 C500 165 500 330 500 500 C335 500 170 500 0 500 C0 335 0 170 0 0 Z " fill="#7E9FFD" transform="translate(0,0)"/>
<path d="M0 0 C45.21 0 90.42 0 137 0 C137 19.8 137 39.6 137 60 C110.93 60 84.86 60 58 60 C58 93.66 58 127.32 58 162 C75.49 162 92.98 162 111 162 C111 181.8 111 201.6 111 222 C93.51 222 76.02 222 58 222 C58 278.1 58 334.2 58 392 C38.86 392 19.72 392 0 392 C0 262.64 0 133.28 0 0 Z " fill="#DAFDFE" transform="translate(191,54)"/>
</svg>
